<svg id="gas-station-icon" viewBox="0 0 48 48" preserveAspectRatio="xMinYMax meet" version="1.1" xmlns="http://www.w3.org/2000/svg" xmlns:xlink="http://www.w3.org/1999/xlink">
    <g id="V1" stroke="none" stroke-width="1" fill-rule="evenodd">
        <g id="Design-v1" transform="translate(-147.000000, -3561.000000)" fill-rule="nonzero">
            <g id="Page" transform="translate(-239.000000, -57.000000)">
                <g id="Section-Content" transform="translate(237.000000, 1554.000000)">
                    <g id="IOT-Use-Cases" transform="translate(139.000000, 1893.000000)">
                        <g id="gas-station" transform="translate(10.000000, 171.000000)">
                            <path d="M47.111531,4.79099998 L46.3130622,4.79099998 L46.3130622,0.798468806 C46.3130622,0.357734237 45.955328,0 45.5145934,0 C45.0738589,0 44.7161246,0.357734237 44.7161246,0.798468806 L44.7161246,4.79099998 L39.9251246,4.79099998 L39.9251246,0.798468806 C39.9251246,0.357734237 39.5673904,0 39.1266558,0 C38.6859213,0 38.3279999,0.357734237 38.3279999,0.798468806 L38.3279999,4.79099998 L37.5295311,4.79099998 C37.0887965,4.79099998 36.7310623,5.14873422 36.7310623,5.58946879 L36.7310623,8.78343759 C36.7310623,11.5941264 38.8175802,13.9201943 41.5220623,14.3090888 L41.5220623,39.1264687 C41.5220623,40.4471752 40.4472688,41.5219687 39.1265623,41.5219687 C37.8058557,41.5219687 36.7310623,40.4471752 36.7310623,39.1264687 L36.7310623,19.9624687 C36.7310623,17.7610417 34.9400517,15.9699376 32.7385311,15.9699376 L31.9400623,15.9699376 L31.9400623,3.9924376 C31.9399687,1.79101054 30.1489582,0 27.9475311,0 L3.99253118,0 C1.79101054,0 0,1.79101054 0,3.99253118 L0,47.111531 C0,47.5522656 0.357734237,47.9099998 0.798468806,47.9099998 L31.1414999,47.9099998 C31.5822345,47.9099998 31.9399687,47.5522656 31.9399687,47.111531 L31.9399687,19.912968 C31.9399687,19.4713912 31.5822345,19.113657 31.1414999,19.113657 C30.7007653,19.113657 30.3430311,19.4713912 30.3430311,19.912968 L30.3430311,46.3129687 L1.59703119,46.3129687 L1.59703119,3.99253118 C1.59703119,2.67182466 2.67182466,1.59703119 3.99253118,1.59703119 L27.9475311,1.59703119 C29.2682376,1.59703119 30.3430311,2.67182466 30.3430311,3.99253118 L30.3430311,16.7684999 C30.3430311,17.2092345 30.7007653,17.5669688 31.1414999,17.5669688 L32.7385311,17.5669688 C34.0592376,17.5669688 35.1340311,18.6417622 35.1340311,19.9624687 L35.1340311,39.1264687 C35.1340311,41.3278957 36.9250416,43.1189999 39.1265623,43.1189999 C41.3279893,43.1189999 43.1190934,41.3279893 43.1190934,39.1264687 L43.1190934,14.3090888 C45.8235755,13.9201943 47.9100934,11.59422 47.9100934,8.78343759 L47.9100934,5.58946879 C47.9099998,5.14873422 47.5522656,4.79099998 47.111531,4.79099998 Z M46.3129687,8.78353116 C46.3129687,10.9849582 44.5219581,12.7760623 42.3204375,12.7760623 C40.1190104,12.7760623 38.3279063,10.9850518 38.3279063,8.78353116 L38.3279063,6.38803117 L46.3128751,6.38803117 L46.3128751,8.78353116 L46.3129687,8.78353116 Z" id="Shape"></path>
                            <path d="M9.45427116,12.0844553 C9.07099116,11.8624972 8.58393736,11.9949983 8.3634765,12.3766876 C8.14310921,12.7591254 8.27401954,13.2470214 8.65570878,13.4674822 L9.34722226,13.8667634 C9.4733603,13.9394706 9.61072725,13.9737188 9.74566128,13.9737188 C10.0219859,13.9737188 10.2902632,13.8308309 10.4379233,13.5744376 C10.6582906,13.1919997 10.5273803,12.7041038 10.1456911,12.4837365 L9.45427116,12.0844553 Z" id="Shape"></path>
                            <path d="M11.5790609,9.1619453 C11.1973717,9.38156399 11.0656192,9.87020856 11.2859865,10.2518978 L11.6852677,10.9441599 C11.8330214,11.2013018 12.1020472,11.3441897 12.3783719,11.3441897 C12.5133059,11.3441897 12.6506729,11.3098479 12.7760623,11.2372343 C13.1585002,11.016867 13.2895041,10.5289711 13.0691368,10.1472818 L12.6698556,9.45417759 C12.4486462,9.07173976 11.959908,8.94082942 11.5790609,9.1619453 Z" id="Shape"></path>
                            <path d="M27.1489687,16.7684999 L27.1489687,15.9700311 C27.1489687,9.80564235 22.1344199,4.79099998 15.9699376,4.79099998 C9.8054552,4.79099998 4.79099998,9.80554878 4.79099998,15.9700311 L4.79099998,16.7684999 C4.79099998,17.2092345 5.14873422,17.5669688 5.58946879,17.5669688 L15.9699376,17.5685595 C16.1815089,17.5685595 16.3851264,17.4838748 16.5344708,17.334624 C16.6845639,17.1845309 16.7684064,16.981662 16.7684064,16.7700907 L16.7684064,8.78427976 C16.7684064,8.34354519 16.4115143,7.98581095 15.9699376,7.98581095 C15.529203,7.98581095 15.1714688,8.34354519 15.1714688,8.78427976 L15.1714688,15.9700311 L6.38803117,15.9700311 C6.38803117,10.6863629 10.6863629,6.38803117 15.9700311,6.38803117 C21.2536994,6.38803117 25.5520311,10.6863629 25.5520311,15.9700311 L19.1639999,15.9700311 C18.7232654,15.9700311 18.3655311,16.3277654 18.3655311,16.7684999 C18.3655311,17.2092345 18.7232654,17.5669688 19.1639999,17.5669688 L26.3504999,17.5669688 C26.7912345,17.5669688 27.1489687,17.2092345 27.1489687,16.7684999 Z" id="Shape"></path>
                            <path d="M19.5616904,11.3451254 C19.838015,11.3451254 20.1062923,11.2022376 20.2539524,10.9458442 L20.6539822,10.2535821 C20.8743495,9.8718929 20.7441878,9.38324833 20.3617499,9.16278747 C19.9800607,8.94157802 19.4914161,9.07258192 19.2709553,9.45501976 L18.8709255,10.1472818 C18.6505582,10.5289711 18.7814685,11.0176156 19.1631578,11.2380765 C19.2885472,11.3107837 19.4259142,11.3451254 19.5616904,11.3451254 Z" id="Shape"></path>
                            <path d="M13.2127732,41.4357868 C13.3277759,41.4940836 13.4514811,41.5220623 13.5745311,41.5220623 C13.8052852,41.5220623 14.0321091,41.42147 14.1878166,41.2346023 L22.1727854,31.6526023 C22.3716306,31.414643 22.4139261,31.0832967 22.2830158,30.803042 C22.1512633,30.5227872 21.8694177,30.3431247 21.5595935,30.3431247 L17.7427947,30.3431247 L19.1489345,23.3131744 C19.2223903,22.9443048 19.0283173,22.5737509 18.6834028,22.4244064 C18.337646,22.2743134 17.9344347,22.3868832 17.7156582,22.6926837 L9.7306894,33.8717149 C9.55738995,34.1152886 9.53343495,34.4346574 9.6708019,34.7013439 C9.80732669,34.9664397 10.0812184,35.1341247 10.3806559,35.1341247 L14.1487961,35.1341247 L12.8001109,40.5296141 C12.7097182,40.8911849 12.8805847,41.2672597 13.2127732,41.4357868 Z M11.9320229,33.5369999 L16.8523424,26.6483467 L15.9859388,30.9850438 C15.9380288,31.2198215 15.999507,31.462553 16.1511908,31.64783 C16.3028746,31.8331069 16.5288564,31.9400623 16.7684064,31.9400623 L19.8545777,31.9400623 L15.1953302,37.5303732 L15.945889,34.5296352 C16.0057765,34.2909274 15.952252,34.0377155 15.8005682,33.8444848 C15.649633,33.6504118 15.4172882,33.5370935 15.1713752,33.5370935 L11.9320229,33.5370935 L11.9320229,33.5369999 Z" id="Shape"></path>
                            <path d="M22.1934653,13.9753095 C22.3283993,13.9753095 22.4657662,13.9409678 22.5911557,13.8683542 L23.2834178,13.469073 C23.6658556,13.2487057 23.7968595,12.7608097 23.5764922,12.3783719 C23.3561249,11.9959341 22.8666382,11.8649302 22.4857911,12.0861396 L21.7935291,12.4854208 C21.4118398,12.7057881 21.2800873,13.1936841 21.5004546,13.5753733 C21.6481147,13.8324217 21.9172342,13.9753095 22.1934653,13.9753095 Z" id="Shape"></path>
                        </g>
                    </g>
                </g>
            </g>
        </g>
    </g>
</svg>