<svg id="factory-icon" viewBox="0 0 32 32" preserveAspectRatio="xMinYMax meet" version="1.1" xmlns="http://www.w3.org/2000/svg" xmlns:xlink="http://www.w3.org/1999/xlink">
    <g id="V1" stroke="none" stroke-width="1" fill-rule="evenodd">
        <g id="Design-v1" transform="translate(-141.000000, -3687.000000)" fill-rule="nonzero">
            <g id="Page" transform="translate(-239.000000, -57.000000)">
                <g id="Section-Content" transform="translate(237.000000, 1554.000000)">
                    <g id="IOT-Use-Cases" transform="translate(139.000000, 1893.000000)">
                        <g id="factory" transform="translate(4.000000, 297.000000)">
                            <path d="M18.4159687,14.4 C17.9744062,14.4 17.6199375,14.7584063 17.6199375,15.1999688 C17.6199375,15.6415313 17.982375,15.9999375 18.4239375,15.9999375 C18.8663437,15.9999375 19.2239062,15.6415312 19.2239062,15.1999688 C19.2239062,14.7584062 18.8663437,14.4 18.4239375,14.4 L18.4159687,14.4 Z" id="Shape"></path>
                            <path d="M22.3999687,15.1999688 L22.3999687,19.9999688 C22.3999687,20.4415313 22.758375,20.7999375 23.1999375,20.7999375 L37.5999375,20.7999375 C38.0415,20.7999375 38.3999063,20.4415313 38.3999063,19.9999688 C38.3999063,19.5584063 38.0415,19.2 37.5999375,19.2 L24,19.2 L24,16.0000313 L40.0000312,16.0000313 L40.0000312,23.2000313 C40.0000312,35.9704688 42.3344063,43.8984375 42.4335938,44.2296563 C42.5375625,44.5768125 42.8551875,44.8000313 43.2,44.8000313 C43.2760313,44.8000313 43.3528125,44.788875 43.4295937,44.7664688 C43.8527812,44.63925 44.0927813,44.1936563 43.9664062,43.7704688 C43.9424063,43.69125 41.5999688,35.7160313 41.5999688,23.2000313 L41.5999688,15.2000625 C41.5999688,14.7585 41.2415625,14.4000938 40.8,14.4000938 L23.2000313,14.4000938 C22.758375,14.4 22.3999687,14.7584063 22.3999687,15.1999688 Z" id="Shape"></path>
                            <path d="M24,12.7999687 L26.4,12.7999687 C26.8415625,12.7999687 27.1999688,12.4415625 27.1999688,12 L27.1999688,9.6 C27.1999688,7.83515625 25.76475,6.40003125 24,6.40003125 L21.6,6.40003125 C21.1584375,6.40003125 20.8000313,6.7584375 20.8000313,7.2 L20.8000313,9.6 C20.8000313,11.3648437 22.2351563,12.7999687 24,12.7999687 Z M22.3999688,7.99996875 L24,7.99996875 C24.882375,7.99996875 25.6000313,8.71753125 25.6000313,9.6 L25.6000313,11.2000312 L24,11.2000312 C23.117625,11.2000312 22.3999688,10.4824687 22.3999688,9.6 L22.3999688,7.99996875 Z" id="Shape"></path>
                            <path d="M13.6240312,7.99996875 C14.0664375,7.99996875 14.424,7.6415625 14.424,7.2 C14.424,6.7584375 14.0664375,6.40003125 13.6240312,6.40003125 L13.6160625,6.40003125 C13.1745,6.40003125 12.8200312,6.7584375 12.8200312,7.2 C12.8200312,7.6415625 13.182375,7.99996875 13.6240312,7.99996875 Z" id="Shape"></path>
                            <path d="M24.8239688,3.19996875 C25.266375,3.19996875 25.6239375,2.8415625 25.6239375,2.4 C25.6239375,1.9584375 25.266375,1.60003125 24.8239688,1.60003125 L24.816,1.60003125 C24.3744375,1.60003125 24.0199688,1.9584375 24.0199688,2.4 C24.0199688,2.8415625 24.3824063,3.19996875 24.8239688,3.19996875 Z" id="Shape"></path>
                            <path d="M29.5512187,8.39915625 C30.06,9.282375 31.12725,9.75675 32.1200625,9.54871875 C32.43525,10.5055313 33.3384375,11.1983438 34.4009062,11.1983438 C35.4625312,11.1983438 36.364875,10.5055313 36.6800625,9.54871875 C36.8408437,9.58228125 37.0049062,9.59990625 37.168875,9.59990625 L37.1697188,9.59990625 C38.02575,9.59990625 38.8225312,9.139125 39.2489062,8.39990625 C39.5697187,7.84471875 39.6553125,7.19746875 39.4889062,6.57834375 C39.3904687,6.20953125 39.2097187,5.87596875 38.96175,5.59996875 C39.2097187,5.323125 39.3905625,4.99040625 39.4889062,4.62075 C39.6553125,4.00153125 39.5697187,3.354375 39.24975,2.7999375 C38.740125,1.91671875 37.6745625,1.4439375 36.6801562,1.650375 C36.3647812,0.6928125 35.4615937,0 34.3999687,0 C33.3383437,0 32.4351562,0.6928125 32.1199687,1.650375 C31.1271562,1.4439375 30.06,1.9175625 29.551125,2.7999375 C29.2303125,3.354375 29.1447187,4.00153125 29.311125,4.62075 C29.4095625,4.9903125 29.5903125,5.323125 29.8382812,5.59996875 C29.5903125,5.87596875 29.4094687,6.20953125 29.311125,6.57834375 C29.1448125,7.1975625 29.2304062,7.8448125 29.5512187,8.39915625 Z M31.613625,4.79278125 C31.4687812,4.79034375 31.3400625,4.75678125 31.228875,4.69275 C31.0440937,4.58559375 30.9120937,4.4135625 30.8560313,4.207125 C30.8016563,4.0006875 30.8295938,3.7846875 30.9368438,3.59990625 C31.1496563,3.23109375 31.65525,3.09271875 32.0288438,3.30628125 C32.141625,3.37190625 32.2360313,3.46865625 32.3120625,3.595875 C32.4200625,3.7790625 32.60325,3.908625 32.8096875,3.96065625 C33.0152813,4.0134375 33.2408438,3.9774375 33.4232813,3.86709375 C33.7944375,3.64471875 33.9209063,3.1663125 33.7088438,2.78953125 C33.6368438,2.66071875 33.6,2.5295625 33.6,2.39990625 C33.6,1.95909375 33.9591563,1.5999375 34.3999688,1.5999375 C34.8407813,1.5999375 35.1999375,1.95909375 35.1999375,2.39990625 C35.1999375,2.52946875 35.1630938,2.66071875 35.0910938,2.78953125 C34.879125,3.1663125 35.0166563,3.65109375 35.3879063,3.8743125 C35.5703438,3.98315625 35.7879375,4.015125 35.995875,3.9639375 C36.2023125,3.91190625 36.379875,3.77915625 36.487875,3.59596875 C36.5639063,3.46875 36.6583125,3.372 36.7710938,3.307125 C37.1446875,3.09271875 37.651125,3.23109375 37.8639375,3.59990625 C37.9703438,3.7846875 37.999125,4.0006875 37.9439063,4.207125 C37.8879375,4.4135625 37.7559375,4.5855 37.5710625,4.69275 C37.460625,4.7559375 37.3310625,4.78959375 37.1862188,4.7919375 C36.7494375,4.79990625 36.399,5.155125 36.399,5.59190625 L36.399,5.599875 L36.399,5.60709375 C36.399,6.043875 36.7494375,6.3999375 37.1862188,6.4070625 C37.3310625,6.4095 37.4597813,6.4430625 37.5710625,6.50709375 C37.7558438,6.6135 37.8878438,6.78553125 37.9439063,6.991875 C37.999125,7.1990625 37.9703438,7.4143125 37.8630938,7.59984375 C37.6502813,7.96865625 37.1439375,8.10703125 36.7710938,7.892625 C36.6583125,7.827 36.5639063,7.731 36.4894688,7.604625 C36.2743125,7.23825 35.8054688,7.10859375 35.4278438,7.30303125 C35.395875,7.3198125 35.3582813,7.3430625 35.3294063,7.36303125 C34.9926563,7.599 34.8894375,8.0518125 35.091,8.41021875 C35.163,8.53903125 35.1998437,8.6694375 35.1998437,8.79984375 C35.1998437,9.2398125 34.8414375,9.5990625 34.400625,9.5990625 L34.3990313,9.5990625 C33.9582188,9.5990625 33.5998125,9.23990625 33.5998125,8.79984375 C33.5998125,8.6694375 33.6366563,8.53903125 33.7086563,8.41021875 C33.9214688,8.03259375 33.78225,7.5478125 33.41025,7.32459375 C33.284625,7.25015625 33.1430625,7.21096875 32.9990625,7.21096875 C32.9334375,7.21096875 32.8662188,7.2189375 32.8014375,7.2358125 C32.595,7.28859375 32.4182813,7.4214375 32.3102813,7.604625 C32.2358438,7.731 32.1414375,7.827 32.0286563,7.89178125 C31.6550625,8.10778125 31.1494688,7.9685625 30.9358125,7.599 C30.8294063,7.41421875 30.801375,7.19896875 30.8558438,6.99178125 C30.9118125,6.78534375 31.0438125,6.61340625 31.2286875,6.507 C31.339125,6.44296875 31.4686875,6.40940625 31.6134375,6.40696875 C32.0502187,6.39975 32.4006563,6.04378125 32.4006563,5.607 L32.4006563,5.59978125 L32.4006563,5.5925625 C32.4008437,5.15596875 32.0504062,4.8 31.613625,4.79278125 Z" id="Shape"></path>
                            <path d="M34.4239688,6.40003125 C34.866375,6.40003125 35.2239375,6.041625 35.2239375,5.6000625 C35.2239375,5.1585 34.866375,4.80009375 34.4239688,4.80009375 L34.416,4.80009375 C33.9744375,4.80009375 33.6199688,5.1585 33.6199688,5.6000625 C33.6199688,6.041625 33.9824063,6.40003125 34.4239688,6.40003125 Z" id="Shape"></path>
                            <path d="M43.224,12 C43.224,11.5584375 42.8664375,11.2000313 42.4240312,11.2000313 L42.4160625,11.2000313 C41.9745,11.2000313 41.6200312,11.5584375 41.6200312,12 C41.6200312,12.4415625 41.9824687,12.7999687 42.4240312,12.7999687 C42.8664375,12.7999687 43.224,12.4415625 43.224,12 Z" id="Shape"></path>
                            <path d="M8.7511875,9.9984375 C9.25996875,10.8824063 10.325625,11.3584688 11.3200312,11.1488438 C11.6352187,12.1056563 12.5384062,12.7992188 13.600875,12.7992188 C14.6625,12.7992188 15.5648437,12.1056563 15.8800312,11.1488438 C16.0408125,11.1824063 16.204875,11.2000313 16.3688437,11.2000313 L16.3696875,11.2000313 C17.2257187,11.2000313 18.0225,10.73925 18.448875,10.0000313 C18.7696875,9.44484375 18.8552812,8.79759375 18.688875,8.17846875 C18.5904375,7.80965625 18.4096875,7.47609375 18.1617187,7.20009375 C18.4096875,6.92325 18.5905312,6.59053125 18.688875,6.220875 C18.8552812,5.60165625 18.7696875,4.9545 18.4497187,4.4000625 C17.9393437,3.5176875 16.876125,3.04246875 15.880125,3.2505 C15.5649375,2.2929375 14.66175,1.600125 13.600125,1.600125 C12.5385,1.600125 11.6353125,2.2929375 11.320125,3.2505 C10.3257187,3.04246875 9.26090625,3.5176875 8.75128125,4.4000625 C8.43046875,4.9545 8.344875,5.60165625 8.51128125,6.220875 C8.60971875,6.5904375 8.79046875,6.92325 9.0384375,7.20009375 C8.79046875,7.47609375 8.609625,7.80965625 8.51128125,8.17846875 C8.34478125,8.79759375 8.430375,9.44484375 8.7511875,9.9984375 Z M10.8135937,6.3928125 C10.66875,6.390375 10.5400312,6.3568125 10.42875,6.29278125 C10.2439687,6.185625 10.1119687,6.01359375 10.0559062,5.80715625 C10.0015312,5.60071875 10.0294687,5.38471875 10.1367187,5.1999375 C10.3495312,4.83196875 10.855125,4.69115625 11.2287187,4.9063125 C11.3415,4.9719375 11.4359062,5.0686875 11.5119375,5.19590625 C11.6199375,5.37909375 11.803125,5.50875 12.0095625,5.5606875 C12.2151562,5.61346875 12.4407187,5.57671875 12.6231562,5.467125 C12.9943125,5.24475 13.1207812,4.76634375 12.9087187,4.3895625 C12.8367187,4.26075 12.799875,4.12959375 12.799875,3.9999375 C12.799875,3.559125 13.1590312,3.19996875 13.5998437,3.19996875 C14.0406562,3.19996875 14.3998125,3.559125 14.3998125,3.9999375 C14.3998125,4.1295 14.3629687,4.26075 14.2909687,4.3895625 C14.079,4.76634375 14.2165312,5.251125 14.5877812,5.47434375 C14.7702187,5.5839375 14.9878125,5.61515625 15.19575,5.56396875 C15.4021875,5.5119375 15.57975,5.3791875 15.68775,5.196 C15.7637812,5.06878125 15.8581875,4.97203125 15.9709687,4.90715625 C16.3438125,4.69275 16.851,4.83196875 17.0637187,5.1999375 C17.170125,5.38471875 17.1989062,5.60071875 17.1436875,5.80715625 C17.0877187,6.01359375 16.9557187,6.18553125 16.7708437,6.29278125 C16.6604062,6.35596875 16.5308437,6.389625 16.386,6.39196875 C15.9492187,6.3999375 15.5987812,6.75515625 15.5987812,7.1919375 L15.5987812,7.2 L15.5987812,7.20721875 C15.5987812,7.644 15.9492187,7.99996875 16.386,8.0071875 C16.5308437,8.009625 16.6595625,8.0431875 16.7708437,8.10721875 C16.955625,8.213625 17.087625,8.38565625 17.1436875,8.592 C17.1989062,8.7984375 17.170125,9.0144375 17.062875,9.19996875 C16.8509062,9.56878125 16.343625,9.708 15.970875,9.49275 C15.8580937,9.427125 15.7636875,9.331125 15.68925,9.20475 C15.4740937,8.839125 15.00525,8.7095625 14.627625,8.90315625 C14.5956562,8.9199375 14.5580625,8.9431875 14.5291875,8.96315625 C14.1923437,9.199125 14.0892187,9.6519375 14.2907812,10.0103438 C14.3627812,10.1391563 14.399625,10.2695625 14.399625,10.3999688 C14.399625,10.8399375 14.0412187,11.1983438 13.6004062,11.1983438 L13.5988125,11.1983438 C13.158,11.1983438 12.7995937,10.8399375 12.7995937,10.3999688 C12.7995937,10.2695625 12.8364375,10.1391563 12.9084375,10.0103438 C13.12125,9.63271875 12.9820312,9.1479375 12.6100312,8.92471875 C12.4844062,8.85028125 12.3428437,8.81109375 12.1988437,8.81109375 C12.1332187,8.81109375 12.0668437,8.8190625 12.0012187,8.8359375 C11.7947812,8.88871875 11.6180625,9.0215625 11.5099687,9.20475 C11.4355312,9.331125 11.341125,9.427125 11.2283437,9.49190625 C10.85475,9.70790625 10.3491562,9.5686875 10.1355,9.199125 C10.0290937,9.01434375 10.0010625,8.79834375 10.0555312,8.59190625 C10.1115,8.38546875 10.2435,8.21353125 10.428375,8.107125 C10.5388125,8.04309375 10.668375,8.00953125 10.8132187,8.00709375 C11.25,7.999875 11.6004375,7.64390625 11.6004375,7.207125 L11.6004375,7.2 L11.6004375,7.19278125 C11.6008125,6.756 11.250375,6.40003125 10.8135937,6.3928125 Z" id="Shape"></path>
                            <path d="M31.2,46.3999687 L29.5999688,46.3999687 C29.1584063,46.3999687 28.8,46.758375 28.8,47.1999375 C28.8,47.6415 29.1584062,47.9999063 29.5999688,47.9999063 L31.2,47.9999063 C31.6415625,47.9999063 31.9999688,47.6415 31.9999688,47.1999375 C31.9999688,46.758375 31.6415625,46.3999687 31.2,46.3999687 Z" id="Shape"></path>
                            <path d="M47.2000312,46.3999687 L34.3999687,46.3999687 C33.9584062,46.3999687 33.6,46.758375 33.6,47.1999375 C33.6,47.6415 33.9584062,47.9999063 34.3999687,47.9999063 L47.1999375,47.9999063 C47.6415,47.9999063 47.9999062,47.6415 47.9999062,47.1999375 C47.9999062,46.758375 47.6415937,46.3999687 47.2000312,46.3999687 Z" id="Shape"></path>
                            <path d="M47.2000312,3.19996875 L44.8000312,3.19996875 C43.0351875,3.19996875 41.6000625,4.6351875 41.6000625,6.3999375 L41.6000625,8.7999375 C41.6000625,9.2415 41.9584687,9.59990625 42.4000312,9.59990625 L44.8000312,9.59990625 C46.5647812,9.6 48,8.16478125 48,6.40003125 L48,4.00003125 C48,3.558375 47.6415937,3.19996875 47.2000312,3.19996875 Z M46.3999687,6.40003125 C46.3999687,7.28240625 45.6824062,8.0000625 44.7999375,8.0000625 L43.2,8.0000625 L43.2,6.40003125 C43.2,5.51765625 43.9175625,4.8 44.8000312,4.8 L46.4000625,4.8 L46.4000625,6.40003125 L46.3999687,6.40003125 Z" id="Shape"></path>
                            <path d="M26.4,46.3999687 L15.1999687,46.3999687 C14.7584062,46.3999687 14.4,46.758375 14.4,47.1999375 C14.4,47.6415 14.7584063,47.9999063 15.1999687,47.9999063 L26.4,47.9999063 C26.8415625,47.9999063 27.1999688,47.6415 27.1999688,47.1999375 C27.1999688,46.758375 26.8415625,46.3999687 26.4,46.3999687 Z" id="Shape"></path>
                            <path d="M3.19996875,14.4 L5.59996875,14.4 C6.04153125,14.4 6.3999375,14.0415938 6.3999375,13.6000313 L6.3999375,11.2000313 C6.3999375,9.4351875 4.96471875,8.0000625 3.19996875,8.0000625 L0.79996875,8.0000625 C0.35840625,7.99996875 0,8.358375 0,8.80003125 L0,11.2000313 C0,12.9647813 1.43521875,14.4 3.19996875,14.4 Z M1.60003125,9.6 L3.2000625,9.6 C4.0824375,9.6 4.80009375,10.3175625 4.80009375,11.2000313 L4.80009375,12.8000625 L3.19996875,12.8000625 C2.31759375,12.8000625 1.5999375,12.0825 1.5999375,11.2000313 L1.5999375,9.6 L1.60003125,9.6 Z" id="Shape"></path>
                            <path d="M4.02403125,3.19996875 C4.4664375,3.19996875 4.824,2.8415625 4.824,2.4 C4.824,1.9584375 4.4664375,1.60003125 4.02403125,1.60003125 L4.0160625,1.60003125 C3.5745,1.60003125 3.22003125,1.9584375 3.22003125,2.4 C3.22003125,2.8415625 3.582375,3.19996875 4.02403125,3.19996875 Z" id="Shape"></path>
                            <path d="M12,46.3999687 L0.79996875,46.3999687 C0.35840625,46.3999687 0,46.758375 0,47.1999375 C0,47.6415 0.35840625,48 0.79996875,48 L12,48 C12.4415625,48 12.7999687,47.6415938 12.7999687,47.2000313 C12.7999687,46.7584687 12.4415625,46.3999687 12,46.3999687 Z" id="Shape"></path>
                            <path d="M4.44,44.7144375 C4.55596875,44.7728438 4.67840625,44.8000313 4.8,44.8000313 C5.09203125,44.8000313 5.3735625,44.63925 5.514375,44.3600625 C5.681625,44.0296875 9.6,36.1456875 9.6,26.4000937 C9.6,25.9585313 9.24159375,25.600125 8.80003125,25.600125 C8.35846875,25.600125 8.0000625,25.9585312 8.0000625,26.4000937 C8.0000625,35.7512813 4.12490625,43.5625313 4.085625,43.6400625 C3.88725,44.034375 4.04559375,44.5159687 4.44,44.7144375 Z" id="Shape"></path>
                            <path d="M8.80003125,24 L22.396875,24 C22.3000312,36.054375 20.056875,43.6928438 20.0337187,43.770375 C19.9073437,44.1935625 20.1473437,44.6391562 20.5705312,44.766375 C20.6473125,44.7887812 20.7240937,44.7999375 20.800125,44.7999375 C21.1449375,44.7999375 21.4625625,44.5767188 21.5665312,44.2295625 C21.665625,43.8984375 24,35.970375 24,23.2000312 C24,22.7584687 23.6415937,22.4000625 23.2000312,22.4000625 L9.6,22.4000625 L9.6,19.2 L19.9999687,19.2 C20.4415312,19.2 20.7999375,18.8415937 20.7999375,18.4000312 C20.7999375,17.9584688 20.4415312,17.6000625 19.9999687,17.6000625 L8.80003125,17.6000625 C8.35846875,17.6000625 8.0000625,17.9584688 8.0000625,18.4000312 L8.0000625,23.2000313 C7.99996875,23.6415937 8.358375,24 8.80003125,24 Z" id="Shape"></path>
                        </g>
                    </g>
                </g>
            </g>
        </g>
    </g>
</svg>