<?xml version="1.0" encoding="UTF-8"?>
<svg width="32px" height="32px" viewBox="0 0 32 32" version="1.1" xmlns="http://www.w3.org/2000/svg" xmlns:xlink="http://www.w3.org/1999/xlink">
    <!-- Generator: Sketch 51.1 (57501) - http://www.bohemiancoding.com/sketch -->
    <title>facebok</title>
    <desc>Created with Sketch.</desc>
    <defs></defs>
    <g id="V1" stroke="none" stroke-width="1" fill="none" fill-rule="evenodd">
        <g id="Design-v1" transform="translate(-1274.000000, -5459.000000)" fill="#000000" fill-rule="nonzero">
            <g id="Page" transform="translate(-239.000000, -57.000000)">
                <g id="Section.Footer" transform="translate(119.000000, 4880.000000)">
                    <g id="Text" transform="translate(0.000000, 479.000000)">
                        <g id="facebok" transform="translate(1394.000000, 157.000000)">
                            <path d="M16,0.062125 C24.8365625,0.062125 32,7.2255625 32,16.062125 C32,24.2213125 25.8925625,30.9536875 18,31.9379375 L18,20.062125 L23.5,20.062125 L24,16.062125 L18,16.062125 L18,14.062125 C18,12.9575625 18.895375,12.062125 20,12.062125 L24,12.062125 L24,8.062125 L20,8.062125 C16.68625,8.062125 14,10.748375 14,14.062125 L14,16.062125 L11,16.062125 L11,20.062125 L14,20.062125 L14,27.968375 L14,31.5580625 L14,31.9379375 C6.1074375,30.953625 0,24.2213125 0,16.062125 C0,7.2255625 7.1634375,0.062125 16,0.062125 Z" id="Shape"></path>
                        </g>
                    </g>
                </g>
            </g>
        </g>
    </g>
</svg>