<?xml version="1.0" encoding="UTF-8"?>
<svg width="64px" height="65px" viewBox="0 0 64 65" version="1.1" xmlns="http://www.w3.org/2000/svg" xmlns:xlink="http://www.w3.org/1999/xlink">
    <!-- Generator: Sketch 51.1 (57501) - http://www.bohemiancoding.com/sketch -->
    <title>phone-call</title>
    <desc>Created with Sketch.</desc>
    <defs></defs>
    <g id="Page-1" stroke="none" stroke-width="1" fill="none" fill-rule="evenodd">
        <g id="phone-call" transform="translate(0.098840, 0.098840)" fill="#000000" fill-rule="nonzero">
            <path d="M50.5594599,39.6295021 C49.2497553,38.265789 47.6700084,37.5366751 45.9957468,37.5366751 C44.3349873,37.5366751 42.7417384,38.2522869 41.3780253,39.616 L37.1113586,43.8691646 C36.7603038,43.680135 36.4092489,43.5046076 36.0716962,43.3290802 C35.5856203,43.0860422 35.1265485,42.8565063 34.7349873,42.6134684 C30.7383629,40.0750717 27.1062954,36.7670549 23.6227511,32.4868861 C21.9349873,30.3535527 20.8008101,28.5577722 19.9771814,26.7349873 C21.0843544,25.7223291 22.1105148,24.6691646 23.1096709,23.6565063 C23.48773,23.2784473 23.865789,22.8868861 24.2438481,22.508827 C27.0792911,19.673384 27.0792911,16.0008101 24.2438481,13.1653671 L20.5577722,9.47929114 C20.1392068,9.06072574 19.7071392,8.62865823 19.3020759,8.19659072 C18.4919494,7.35945992 17.6413165,6.49532489 16.7636793,5.68519831 C15.4539747,4.38899578 13.88773,3.70038819 12.2404726,3.70038819 C10.5932152,3.70038819 8.99996624,4.38899578 7.64975527,5.68519831 C7.64075387,5.69419972 6.10151336,7.24694233 3.03203376,10.3434262 C1.30376371,12.0716962 0.318109705,14.1780253 0.102075949,16.6219072 C-0.221974684,20.5645232 0.939206751,24.237097 1.83034599,26.6404726 C4.01768776,32.5408945 7.28519831,38.0092489 12.1594599,43.8691646 C18.073384,50.9307679 25.1889958,56.5071392 33.3172658,60.4362532 C36.4227511,61.9079831 40.5678987,63.6497553 45.1991224,63.9468017 C45.4826667,63.9603038 45.7797131,63.9738059 46.0497553,63.9738059 C49.1687426,63.9738059 51.7881519,62.8531308 53.8404726,60.6252827 C54.5965907,59.7071392 55.4067173,58.937519 56.2573502,58.1138903 C56.8379409,57.5603038 57.4320338,56.9797131 58.0126245,56.3721181 C59.3493333,54.9814008 60.051443,53.3611477 60.051443,51.7003882 C60.051443,50.0261266 59.3358312,48.4193755 57.9721181,47.0691646 L50.5594599,39.6295021 Z M55.3932152,53.8472236 C55.3797131,53.8472236 55.3797131,53.8607257 55.3932152,53.8472236 C54.8666329,54.4143122 54.3265485,54.9273924 53.7459578,55.494481 C52.8683207,56.3316118 51.9771814,57.2092489 51.1400506,58.194903 C49.7763376,59.6531308 48.1695865,60.3417384 46.0632574,60.3417384 C45.8607257,60.3417384 45.644692,60.3417384 45.4421603,60.3282363 C41.4320338,60.0716962 37.7054515,58.5054515 34.9105148,57.1687426 C27.2683207,53.4691646 20.5577722,48.2168439 14.9814008,41.5603038 C10.3771814,36.0109367 7.29870042,30.880135 5.25988186,25.3712743 C4.00418565,22.0092489 3.54511392,19.3898397 3.74764557,16.9189536 C3.88266667,15.3392068 4.4902616,14.0295021 5.61093671,12.908827 L10.2151561,8.30460759 C10.8767595,7.68351055 11.5788692,7.34595781 12.2674768,7.34595781 C13.1181097,7.34595781 13.8067173,7.85903797 14.2387848,8.29110549 C14.2522869,8.30460759 14.265789,8.3181097 14.2792911,8.33161181 C15.1029198,9.10123207 15.8860422,9.89785654 16.7096709,10.7484895 C17.1282363,11.180557 17.5603038,11.6126245 17.9923713,12.0581941 L21.6784473,15.74427 C23.1096709,17.1754937 23.1096709,18.4987004 21.6784473,19.9299241 C21.2868861,20.3214852 20.908827,20.7130464 20.5172658,21.0911055 C19.3830886,22.2522869 18.3029198,23.3324557 17.1282363,24.3856203 C17.1012321,24.4126245 17.0742278,24.4261266 17.0607257,24.4531308 C15.8995443,25.6143122 16.1155781,26.7484895 16.358616,27.5181097 C16.3721181,27.558616 16.3856203,27.5991224 16.3991224,27.6396287 C17.3577722,29.9619916 18.7079831,32.1493333 20.7603038,34.7552405 L20.7738059,34.7687426 C24.5003882,39.3594599 28.4295021,42.937519 32.7636793,45.6784473 C33.3172658,46.0295021 33.8843544,46.3130464 34.4244388,46.5830886 C34.9105148,46.8261266 35.3695865,47.0556624 35.7611477,47.2987004 C35.8151561,47.3257046 35.8691646,47.366211 35.923173,47.3932152 C36.3822447,47.6227511 36.8143122,47.7307679 37.2598819,47.7307679 C38.380557,47.7307679 39.0826667,47.0286582 39.3122025,46.7991224 L43.9299241,42.1814008 C44.3889958,41.7223291 45.1181097,41.1687426 45.9687426,41.1687426 C46.8058734,41.1687426 47.494481,41.6953249 47.9130464,42.1543966 C47.9265485,42.1678987 47.9265485,42.1678987 47.9400506,42.1814008 L55.3797131,49.6210633 C56.7704304,50.9982785 56.7704304,52.416 55.3932152,53.8472236 Z" id="Shape"></path>
            <path d="M34.572962,15.2176878 C38.1105148,15.8117806 41.3240169,17.4860422 43.8894177,20.051443 C46.4548186,22.6168439 48.1155781,25.830346 48.723173,29.3678987 C48.8716962,30.259038 49.6413165,30.880135 50.5189536,30.880135 C50.6269705,30.880135 50.7214852,30.8666329 50.8295021,30.8531308 C51.8286582,30.6911055 52.4902616,29.7459578 52.3282363,28.7468017 C51.5991224,24.4666329 49.5738059,20.5645232 46.4818228,17.4725401 C43.3898397,14.380557 39.48773,12.3552405 35.2075612,11.6261266 C34.2084051,11.4641013 33.2767595,12.1257046 33.1012321,13.1113586 C32.9257046,14.0970127 33.5738059,15.0556624 34.572962,15.2176878 Z" id="Shape"></path>
            <path d="M63.8995443,28.2202194 C62.6978565,21.1721181 59.3763376,14.758616 54.2725401,9.65481857 C49.1687426,4.5510211 42.7552405,1.22950211 35.7071392,0.027814346 C34.7214852,-0.14771308 33.7898397,0.527392405 33.6143122,1.51304641 C33.4522869,2.51220253 34.1138903,3.4438481 35.1130464,3.61937553 C41.4050295,4.68604219 47.1434262,7.67000844 51.7071392,12.2202194 C56.2708523,16.7839325 59.2413165,22.5223291 60.3079831,28.8143122 C60.4565063,29.7054515 61.2261266,30.3265485 62.1037637,30.3265485 C62.2117806,30.3265485 62.3062954,30.3130464 62.4143122,30.2995443 C63.3999662,30.1510211 64.0750717,29.2058734 63.8995443,28.2202194 Z" id="Shape"></path>
        </g>
    </g>
</svg>