<?xml version="1.0" encoding="iso-8859-1"?>
<!-- Generator: Adobe Illustrator 19.0.0, SVG Export Plug-In . SVG Version: 6.00 Build 0)  -->
<svg version="1.1" id="Layer_1" xmlns="http://www.w3.org/2000/svg" xmlns:xlink="http://www.w3.org/1999/xlink" x="0px" y="0px"
	 viewBox="0 0 512 512" style="enable-background:new 0 0 512 512;" xml:space="preserve">
<g>
	<g>
		<g>
			<path d="M196.437,153.6c-4.71,0-8.491,3.823-8.491,8.533c0,4.71,3.866,8.533,8.576,8.533c4.719,0,8.533-3.823,8.533-8.533
				c0-4.71-3.814-8.533-8.533-8.533H196.437z"/>
			<path d="M238.933,162.133v51.2c0,4.71,3.823,8.533,8.533,8.533h153.6c4.71,0,8.533-3.823,8.533-8.533
				c0-4.71-3.823-8.533-8.533-8.533H256v-34.133h170.667v76.8c0,136.218,24.9,220.783,25.958,224.316
				c1.109,3.703,4.497,6.084,8.175,6.084c0.811,0,1.63-0.119,2.449-0.358c4.514-1.357,7.074-6.11,5.726-10.624
				c-0.256-0.845-25.242-85.914-25.242-219.418v-85.333c0-4.71-3.823-8.533-8.533-8.533H247.467
				C242.756,153.6,238.933,157.423,238.933,162.133z"/>
			<path d="M256,136.533h25.6c4.71,0,8.533-3.823,8.533-8.533v-25.6c0-18.825-15.309-34.133-34.133-34.133h-25.6
				c-4.71,0-8.533,3.823-8.533,8.533v25.6C221.867,121.225,237.175,136.533,256,136.533z M238.933,85.333H256
				c9.412,0,17.067,7.654,17.067,17.067v17.067H256c-9.412,0-17.067-7.654-17.067-17.067V85.333z"/>
			<path d="M145.323,85.333c4.719,0,8.533-3.823,8.533-8.533s-3.814-8.533-8.533-8.533h-0.085c-4.71,0-8.491,3.823-8.491,8.533
				S140.612,85.333,145.323,85.333z"/>
			<path d="M264.789,34.133c4.719,0,8.533-3.823,8.533-8.533c0-4.71-3.814-8.533-8.533-8.533h-0.085
				c-4.71,0-8.491,3.823-8.491,8.533C256.213,30.31,260.079,34.133,264.789,34.133z"/>
			<path d="M315.213,89.591c5.427,9.421,16.811,14.481,27.401,12.262c3.362,10.206,12.996,17.596,24.329,17.596
				c11.324,0,20.949-7.39,24.311-17.596c1.715,0.358,3.465,0.546,5.214,0.546h0.009c9.131,0,17.63-4.915,22.178-12.8
				c3.422-5.922,4.335-12.826,2.56-19.43c-1.05-3.934-2.978-7.492-5.623-10.436c2.645-2.953,4.574-6.502,5.623-10.445
				c1.775-6.605,0.862-13.508-2.551-19.422c-5.436-9.421-16.802-14.464-27.409-12.262C387.891,7.39,378.257,0,366.933,0
				s-20.958,7.39-24.32,17.604c-10.59-2.202-21.973,2.85-27.401,12.262c-3.422,5.914-4.335,12.817-2.56,19.422
				c1.05,3.942,2.978,7.492,5.623,10.445c-2.645,2.944-4.574,6.502-5.623,10.436C310.878,76.774,311.791,83.678,315.213,89.591z
				 M337.212,51.123c-1.545-0.026-2.918-0.384-4.104-1.067c-1.971-1.143-3.379-2.978-3.977-5.18
				c-0.58-2.202-0.282-4.506,0.862-6.477c2.27-3.934,7.663-5.41,11.648-3.132c1.203,0.7,2.21,1.732,3.021,3.089
				c1.152,1.954,3.106,3.336,5.308,3.891c2.193,0.563,4.599,0.179,6.545-0.998c3.959-2.372,5.308-7.475,3.046-11.494
				c-0.768-1.374-1.161-2.773-1.161-4.156c0-4.702,3.831-8.533,8.533-8.533s8.533,3.831,8.533,8.533
				c0,1.382-0.393,2.782-1.161,4.156c-2.261,4.019-0.794,9.19,3.166,11.571c1.946,1.161,4.267,1.502,6.485,0.956
				c2.202-0.555,4.096-1.971,5.248-3.925c0.811-1.357,1.818-2.389,3.021-3.081c3.985-2.287,9.387-0.811,11.657,3.123
				c1.135,1.971,1.442,4.275,0.853,6.477c-0.597,2.202-2.005,4.036-3.977,5.18c-1.178,0.674-2.56,1.033-4.105,1.058
				c-4.659,0.085-8.397,3.874-8.397,8.533v0.085v0.077c0,4.659,3.738,8.457,8.397,8.533c1.545,0.026,2.918,0.384,4.105,1.067
				c1.971,1.135,3.379,2.97,3.977,5.171c0.589,2.21,0.282,4.506-0.862,6.485c-2.27,3.934-7.671,5.41-11.648,3.123
				c-1.203-0.7-2.21-1.724-3.004-3.072c-2.295-3.908-7.296-5.291-11.324-3.217c-0.341,0.179-0.742,0.427-1.05,0.64
				c-3.592,2.517-4.693,7.347-2.543,11.17c0.768,1.374,1.161,2.765,1.161,4.156c0,4.693-3.823,8.525-8.525,8.525h-0.017
				c-4.702,0-8.525-3.831-8.525-8.525c0-1.391,0.393-2.782,1.161-4.156c2.27-4.028,0.785-9.199-3.183-11.58
				c-1.34-0.794-2.85-1.212-4.386-1.212c-0.7,0-1.417,0.085-2.108,0.265c-2.202,0.563-4.087,1.98-5.239,3.934
				c-0.794,1.348-1.801,2.372-3.004,3.063c-3.985,2.304-9.378,0.819-11.657-3.123c-1.135-1.971-1.434-4.267-0.853-6.477
				c0.597-2.202,2.005-4.036,3.977-5.171c1.178-0.683,2.56-1.041,4.104-1.067c4.659-0.077,8.397-3.874,8.397-8.533v-0.077v-0.077
				C345.609,54.997,341.871,51.2,337.212,51.123z"/>
			<path d="M367.189,68.267c4.719,0,8.533-3.823,8.533-8.533s-3.814-8.533-8.533-8.533h-0.085c-4.71,0-8.491,3.823-8.491,8.533
				S362.479,68.267,367.189,68.267z"/>
			<path d="M461.056,128c0-4.71-3.814-8.533-8.533-8.533h-0.085c-4.71,0-8.491,3.823-8.491,8.533s3.866,8.533,8.576,8.533
				C457.242,136.533,461.056,132.71,461.056,128z"/>
			<path d="M93.346,106.65c5.427,9.429,16.794,14.507,27.401,12.271c3.362,10.206,12.996,17.604,24.329,17.604
				c11.324,0,20.949-7.398,24.311-17.604c1.715,0.358,3.465,0.546,5.214,0.546h0.009c9.131,0,17.63-4.915,22.178-12.8
				c3.422-5.922,4.335-12.826,2.56-19.43c-1.05-3.934-2.978-7.492-5.623-10.436c2.645-2.953,4.574-6.502,5.623-10.445
				c1.775-6.605,0.862-13.508-2.551-19.422c-5.444-9.412-16.785-14.481-27.409-12.262c-3.362-10.214-12.996-17.604-24.32-17.604
				s-20.958,7.39-24.32,17.604c-10.607-2.219-21.965,2.85-27.401,12.262c-3.422,5.914-4.335,12.817-2.56,19.422
				c1.05,3.942,2.978,7.492,5.623,10.445c-2.645,2.944-4.574,6.502-5.623,10.436C89.011,93.841,89.924,100.745,93.346,106.65z
				 M115.345,68.19c-1.545-0.026-2.918-0.384-4.105-1.067c-1.971-1.143-3.379-2.978-3.977-5.18c-0.58-2.202-0.282-4.506,0.862-6.477
				c2.27-3.925,7.663-5.427,11.648-3.132c1.203,0.7,2.21,1.732,3.021,3.089c1.152,1.954,3.106,3.337,5.308,3.891
				c2.193,0.563,4.599,0.171,6.545-0.998c3.959-2.372,5.308-7.475,3.046-11.494c-0.768-1.374-1.161-2.773-1.161-4.156
				c0-4.702,3.831-8.533,8.533-8.533c4.702,0,8.533,3.831,8.533,8.533c0,1.382-0.393,2.782-1.161,4.156
				c-2.261,4.019-0.794,9.19,3.166,11.571c1.946,1.169,4.267,1.502,6.485,0.956c2.202-0.555,4.096-1.971,5.248-3.925
				c0.811-1.357,1.818-2.389,3.021-3.081c3.977-2.287,9.387-0.802,11.656,3.123c1.135,1.971,1.442,4.275,0.853,6.477
				c-0.597,2.202-2.005,4.036-3.977,5.18c-1.178,0.674-2.56,1.033-4.105,1.058c-4.659,0.085-8.397,3.874-8.397,8.533V76.8v0.077
				c0,4.659,3.738,8.456,8.397,8.533c1.545,0.026,2.918,0.384,4.105,1.067c1.971,1.135,3.379,2.97,3.977,5.171
				c0.589,2.202,0.282,4.506-0.862,6.485c-2.261,3.934-7.672,5.419-11.648,3.123c-1.203-0.7-2.21-1.724-3.004-3.072
				c-2.295-3.9-7.296-5.282-11.324-3.217c-0.341,0.179-0.742,0.427-1.05,0.64c-3.593,2.517-4.693,7.347-2.543,11.17
				c0.768,1.374,1.161,2.765,1.161,4.156c0,4.693-3.823,8.516-8.525,8.516h-0.017c-4.702,0-8.525-3.823-8.525-8.516
				c0-1.391,0.393-2.782,1.161-4.156c2.27-4.028,0.785-9.199-3.183-11.58c-1.34-0.794-2.85-1.212-4.386-1.212
				c-0.7,0-1.408,0.085-2.108,0.265c-2.202,0.563-4.087,1.98-5.24,3.934c-0.794,1.348-1.801,2.372-3.004,3.063
				c-3.985,2.304-9.378,0.819-11.657-3.123c-1.135-1.971-1.434-4.275-0.853-6.477c0.597-2.202,2.005-4.036,3.977-5.171
				c1.178-0.683,2.56-1.041,4.105-1.067c4.659-0.077,8.397-3.874,8.397-8.533V76.8v-0.077
				C123.742,72.064,120.004,68.267,115.345,68.19z"/>
			<path d="M332.8,494.933h-17.067c-4.71,0-8.533,3.823-8.533,8.533s3.823,8.533,8.533,8.533H332.8c4.71,0,8.533-3.823,8.533-8.533
				S337.51,494.933,332.8,494.933z"/>
			<path d="M503.467,494.933H366.933c-4.71,0-8.533,3.823-8.533,8.533s3.823,8.533,8.533,8.533h136.533
				c4.71,0,8.533-3.823,8.533-8.533S508.177,494.933,503.467,494.933z"/>
			<path d="M503.467,34.133h-25.6c-18.825,0-34.133,15.309-34.133,34.133v25.6c0,4.71,3.823,8.533,8.533,8.533h25.6
				C496.691,102.4,512,87.091,512,68.267v-25.6C512,37.956,508.177,34.133,503.467,34.133z M494.933,68.267
				c0,9.412-7.654,17.067-17.067,17.067H460.8V68.267c0-9.412,7.654-17.067,17.067-17.067h17.067V68.267z"/>
			<path d="M281.6,494.933H162.133c-4.71,0-8.533,3.823-8.533,8.533s3.823,8.533,8.533,8.533H281.6c4.71,0,8.533-3.823,8.533-8.533
				S286.31,494.933,281.6,494.933z"/>
			<path d="M34.133,153.6h25.6c4.71,0,8.533-3.823,8.533-8.533v-25.6c0-18.825-15.309-34.133-34.133-34.133h-25.6
				C3.823,85.333,0,89.156,0,93.867v25.6C0,138.291,15.309,153.6,34.133,153.6z M17.067,102.4h17.067
				c9.412,0,17.067,7.654,17.067,17.067v17.067H34.133c-9.412,0-17.067-7.654-17.067-17.067V102.4z"/>
			<path d="M42.923,34.133c4.719,0,8.533-3.823,8.533-8.533c0-4.71-3.814-8.533-8.533-8.533h-0.085c-4.71,0-8.491,3.823-8.491,8.533
				C34.347,30.31,38.212,34.133,42.923,34.133z"/>
			<path d="M128,494.933H8.533c-4.71,0-8.533,3.823-8.533,8.533S3.823,512,8.533,512H128c4.71,0,8.533-3.823,8.533-8.533
				S132.71,494.933,128,494.933z"/>
			<path d="M47.36,476.954c1.237,0.623,2.543,0.913,3.84,0.913c3.115,0,6.118-1.715,7.62-4.693
				c1.784-3.524,43.58-87.62,43.58-191.573c0-4.71-3.823-8.533-8.533-8.533c-4.71,0-8.533,3.823-8.533,8.533
				c0,99.746-41.335,183.066-41.754,183.893C41.464,469.7,43.153,474.837,47.36,476.954z"/>
			<path d="M93.867,256h145.033c-1.033,128.58-24.96,210.057-25.207,210.884c-1.348,4.514,1.212,9.267,5.726,10.624
				c0.819,0.239,1.638,0.358,2.449,0.358c3.678,0,7.066-2.381,8.175-6.084C231.1,468.25,256,383.684,256,247.467
				c0-4.71-3.823-8.533-8.533-8.533H102.4V204.8h110.933c4.71,0,8.533-3.823,8.533-8.533s-3.823-8.533-8.533-8.533H93.867
				c-4.71,0-8.533,3.823-8.533,8.533v51.2C85.333,252.177,89.156,256,93.867,256z"/>
		</g>
	</g>
</g>
<g>
</g>
<g>
</g>
<g>
</g>
<g>
</g>
<g>
</g>
<g>
</g>
<g>
</g>
<g>
</g>
<g>
</g>
<g>
</g>
<g>
</g>
<g>
</g>
<g>
</g>
<g>
</g>
<g>
</g>
</svg>
