<?xml version="1.0" encoding="iso-8859-1"?>
<!-- Generator: Adobe Illustrator 19.0.0, SVG Export Plug-In . SVG Version: 6.00 Build 0)  -->
<svg version="1.1" id="Layer_1" xmlns="http://www.w3.org/2000/svg" xmlns:xlink="http://www.w3.org/1999/xlink" x="0px" y="0px"
	 viewBox="0 0 512 512" style="enable-background:new 0 0 512 512;" xml:space="preserve">
<g>
	<g>
		<g>
			<path d="M503.467,51.2h-8.533V8.533c0-4.71-3.823-8.533-8.533-8.533s-8.533,3.823-8.533,8.533V51.2h-51.2V8.533
				c0-4.71-3.823-8.533-8.533-8.533S409.6,3.823,409.6,8.533V51.2h-8.533c-4.71,0-8.533,3.823-8.533,8.533v34.133
				c0,30.037,22.298,54.895,51.2,59.051v265.216c0,14.114-11.486,25.6-25.6,25.6s-25.6-11.486-25.6-25.6v-204.8
				c0-23.526-19.14-42.667-42.667-42.667h-8.533v-128C341.333,19.14,322.193,0,298.667,0h-256C19.14,0,0,19.14,0,42.667v460.8
				C0,508.177,3.823,512,8.533,512H332.8c4.71,0,8.533-3.823,8.533-8.533V212.804c0-4.719-3.823-8.542-8.533-8.542
				c-4.71,0-8.533,3.823-8.533,8.542v282.129h-307.2V42.667c0-14.114,11.486-25.6,25.6-25.6h256c14.114,0,25.6,11.486,25.6,25.6
				V179.2c0,4.71,3.823,8.533,8.533,8.533h17.067c14.114,0,25.6,11.486,25.6,25.6v204.8c0,23.526,19.14,42.667,42.667,42.667
				c23.526,0,42.667-19.14,42.667-42.667V152.917c28.902-4.156,51.2-29.013,51.2-59.051V59.733
				C512,55.023,508.177,51.2,503.467,51.2z M494.933,93.867c0,23.526-19.14,42.667-42.667,42.667
				c-23.526,0-42.667-19.14-42.667-42.667v-25.6h85.333V93.867z"/>
			<path d="M101.035,129.143c-4.096-2.372-9.301-0.956-11.657,3.123c-2.355,4.087-0.956,9.301,3.123,11.657l7.39,4.267
				c1.348,0.777,2.816,1.143,4.258,1.143c2.953,0,5.82-1.527,7.398-4.267c2.355-4.087,0.956-9.301-3.123-11.656L101.035,129.143z"/>
			<path d="M123.742,97.911c-4.079,2.347-5.487,7.569-3.132,11.648l4.267,7.398c1.579,2.748,4.454,4.275,7.407,4.275
				c1.442,0,2.91-0.367,4.25-1.143c4.087-2.355,5.487-7.569,3.132-11.648l-4.267-7.407
				C133.035,96.947,127.812,95.548,123.742,97.911z"/>
			<path d="M290.133,179.2v-8.533c0-65.877-53.589-119.467-119.467-119.467S51.2,104.789,51.2,170.667v8.533
				c0,4.71,3.823,8.533,8.533,8.533l110.933,0.017c2.261,0,4.437-0.905,6.033-2.5c1.604-1.604,2.5-3.772,2.5-6.033V93.875
				c0-4.71-3.814-8.533-8.533-8.533c-4.71,0-8.533,3.823-8.533,8.533v76.792H68.267c0-56.465,45.935-102.4,102.4-102.4
				s102.4,45.935,102.4,102.4H204.8c-4.71,0-8.533,3.823-8.533,8.533s3.823,8.533,8.533,8.533h76.8
				C286.31,187.733,290.133,183.91,290.133,179.2z"/>
			<path d="M209.05,121.242c2.953,0,5.82-1.527,7.398-4.267l4.275-7.398c2.355-4.079,0.964-9.301-3.123-11.657
				c-4.079-2.364-9.301-0.964-11.657,3.123l-4.275,7.398c-2.355,4.079-0.956,9.301,3.123,11.657
				C206.131,120.875,207.599,121.242,209.05,121.242z"/>
			<path d="M141.201,442.812c1.229,0.623,2.551,0.922,3.866,0.922c2.466,0,4.89-1.075,6.554-3.072l85.333-102.4
				c2.125-2.543,2.577-6.084,1.178-9.079c-1.408-2.995-4.42-4.915-7.731-4.915h-40.789l15.027-75.127
				c0.785-3.942-1.289-7.902-4.975-9.498c-3.695-1.604-8.004-0.401-10.342,2.867l-85.333,119.467
				c-1.852,2.603-2.108,6.016-0.64,8.866c1.459,2.833,4.386,4.625,7.586,4.625h40.269l-14.413,57.66
				C135.825,436.992,137.651,441.011,141.201,442.812z M127.514,358.4l52.582-73.617l-9.259,46.345
				c-0.512,2.509,0.145,5.103,1.766,7.083s4.036,3.123,6.596,3.123h32.981l-49.792,59.742l8.021-32.068
				c0.64-2.551,0.068-5.257-1.553-7.322c-1.613-2.074-4.096-3.285-6.724-3.285H127.514z"/>
			<path d="M237.175,149.35c1.442,0,2.91-0.367,4.25-1.143l7.398-4.267c4.087-2.355,5.487-7.569,3.132-11.656
				c-2.355-4.087-7.586-5.487-11.656-3.123l-7.398,4.267c-4.079,2.355-5.487,7.569-3.132,11.648
				C231.347,147.823,234.223,149.35,237.175,149.35z"/>
		</g>
	</g>
</g>
<g>
</g>
<g>
</g>
<g>
</g>
<g>
</g>
<g>
</g>
<g>
</g>
<g>
</g>
<g>
</g>
<g>
</g>
<g>
</g>
<g>
</g>
<g>
</g>
<g>
</g>
<g>
</g>
<g>
</g>
</svg>
