<?xml version="1.0" encoding="UTF-8"?>
<svg width="513px" height="381px" viewBox="0 0 513 381" version="1.1" xmlns="http://www.w3.org/2000/svg" xmlns:xlink="http://www.w3.org/1999/xlink">
    <!-- Generator: Sketch 51.1 (57501) - http://www.bohemiancoding.com/sketch -->
    <title>email</title>
    <desc>Created with Sketch.</desc>
    <defs></defs>
    <g id="Page-1" stroke="none" stroke-width="1" fill="none" fill-rule="evenodd">
        <g id="email" transform="translate(0.480270, 0.670522)" fill="#000000" fill-rule="nonzero">
            <path d="M462,0 L50,0 C22.43,0 0,22.43 0,50 L0,330 C0,357.57 22.43,380 50,380 L462,380 C489.57,380 512,357.57 512,330 L512,50 C512,22.43 489.57,0 462,0 Z M450.803,20 L416.803,54 L241.254,54 C235.731,54 231.254,58.478 231.254,64 C231.254,69.522 235.731,74 241.254,74 L396.803,74 L368.803,102 L294.827,102 C289.304,102 284.827,106.478 284.827,112 C284.827,117.522 289.304,122 294.827,122 L348.803,122 L299.902,170.901 C275.694,195.108 236.306,195.108 212.098,170.901 L61.197,20 L450.803,20 Z M462,360 L50,360 C45.065,360 40.408,358.794 36.297,356.674 L83.926,309.045 C87.831,305.14 87.831,298.808 83.926,294.903 C81.973,292.95 79.414,291.974 76.855,291.974 C74.296,291.974 71.736,292.951 69.784,294.903 L22.567,342.12 C20.922,338.411 20,334.312 20,330 L20,50 C20,38.39 26.634,28.307 36.306,23.322 C36.517,23.58 36.743,23.831 36.984,24.072 L188.8,175.887 L125.654,239.033 C121.749,242.938 121.749,249.27 125.654,253.176 C129.559,257.082 135.891,257.081 139.797,253.176 L203.171,189.801 C233.602,215.436 278.399,215.436 308.831,189.801 L475.704,356.675 C471.592,358.794 466.935,360 462,360 Z M492,330 C492,334.312 491.078,338.411 489.433,342.12 L323.201,175.886 L475.017,24.071 C475.258,23.83 475.483,23.58 475.695,23.321 C485.366,28.307 492,38.39 492,50 L492,330 Z" id="Shape"></path>
            <path d="M207.4,56.931 C205.54,55.07 202.97,54 200.33,54 C197.7,54 195.12,55.07 193.26,56.931 C191.4,58.79 190.33,61.37 190.33,64 C190.33,66.63 191.4,69.21 193.26,71.07 C195.12,72.93 197.7,74 200.33,74 C202.97,74 205.54,72.931 207.4,71.07 C209.27,69.21 210.33,66.63 210.33,64 C210.33,61.37 209.27,58.79 207.4,56.931 Z" id="Shape"></path>
            <path d="M112.96,265.87 C111.1,264.01 108.52,262.94 105.88,262.94 C103.25,262.94 100.68,264.01 98.81,265.87 C96.95,267.73 95.89,270.31 95.89,272.94 C95.89,275.58 96.95,278.15 98.81,280.01 C100.68,281.88 103.25,282.94 105.88,282.94 C108.52,282.94 111.1,281.88 112.96,280.01 C114.82,278.15 115.88,275.58 115.88,272.94 C115.88,270.31 114.82,267.73 112.96,265.87 Z" id="Shape"></path>
        </g>
    </g>
</svg>