<?xml version="1.0" encoding="UTF-8"?>
<svg width="48px" height="48px" viewBox="0 0 48 48" version="1.1" xmlns="http://www.w3.org/2000/svg" xmlns:xlink="http://www.w3.org/1999/xlink">
    <!-- Generator: Sketch 51.1 (57501) - http://www.bohemiancoding.com/sketch -->
    <title>renewable-energy</title>
    <desc>Created with Sketch.</desc>
    <defs></defs>
    <g id="V1" stroke="none" stroke-width="1" fill="none" fill-rule="evenodd">
        <g id="Design-v1" transform="translate(-143.000000, -3858.000000)" fill="#000000" fill-rule="nonzero">
            <g id="Page" transform="translate(-239.000000, -57.000000)">
                <g id="Section-Content" transform="translate(237.000000, 1554.000000)">
                    <g id="IOT-Use-Cases" transform="translate(139.000000, 1893.000000)">
                        <g id="renewable-energy" transform="translate(6.000000, 468.000000)">
                            <path d="M1.60003125,24 C1.60003125,11.6488125 11.6479688,1.60003125 24,1.60003125 C30.9335625,1.60003125 37.421625,4.864875 41.645625,10.4000625 L36.8000625,10.4000625 C36.3576563,10.4000625 36.0000938,10.7584687 36.0000938,11.2000313 C36.0000938,11.6415938 36.3576563,12 36.8000625,12 L43.2,12 C43.22475,12 43.2464063,11.988 43.2704063,11.9855625 C43.3240313,11.9815312 43.374375,11.9695312 43.4264062,11.9543437 C43.4800313,11.9383125 43.5280313,11.9191875 43.5760312,11.8935 C43.5975938,11.8823438 43.6215937,11.8806562 43.6424063,11.8663125 C43.6648125,11.851875 43.6768125,11.8287188 43.6967813,11.8119375 C43.74,11.7775312 43.7775938,11.7399375 43.812,11.6975625 C43.8439688,11.6575312 43.872,11.6175938 43.89525,11.5735313 C43.91925,11.5287188 43.937625,11.4839063 43.9520625,11.4351563 C43.9688437,11.382375 43.9800937,11.3311875 43.9840313,11.275125 C43.9872187,11.2495313 44.0000625,11.2262813 44.0000625,11.1999375 L44.0000625,4.8 C44.0000625,4.3584375 43.6425,4.00003125 43.2000938,4.00003125 C42.7576875,4.00003125 42.400125,4.3584375 42.400125,4.8 L42.400125,8.78559375 C37.8711563,3.2495625 31.1599688,0 24,0 C10.7664375,0 0,10.7664375 0,24 C0,26.5464375 0.396,29.0511563 1.17684375,31.4447812 C1.2864375,31.7832188 1.600875,31.997625 1.937625,31.997625 C2.0191875,31.997625 2.1031875,31.9840313 2.18559375,31.9575937 C2.60559375,31.8199687 2.8351875,31.36875 2.69840625,30.9488437 C1.96959375,28.7151563 1.60003125,26.3775937 1.60003125,24 Z" id="Shape"></path>
                            <path d="M21.2975625,39.9407813 C21.396,39.9808125 21.498375,39.9999375 21.6,39.9999375 C21.8631563,39.9999375 22.1184375,39.8687812 22.2704063,39.63675 L34.2704063,21.2367187 C34.4440313,20.971125 34.4431875,20.6279062 34.2695625,20.3623125 C34.0951875,20.0967187 33.78,19.95675 33.46875,20.011125 L24.9839063,21.4246875 L27.187125,8.9390625 C27.2543438,8.55909375 27.0415313,8.1855 26.6799375,8.05021875 C26.3207813,7.916625 25.9127813,8.0574375 25.7143125,8.3878125 L13.7143125,28.3877812 C13.5526875,28.6558125 13.5630938,28.9918125 13.7391563,29.2501875 C13.914375,29.5078125 14.2247813,29.6398125 14.5311563,29.588625 L22.9879688,28.1798437 L20.815125,39.0430312 C20.7407813,39.4191563 20.9424375,39.7960312 21.2975625,39.9407813 Z M15.977625,27.726375 L24.8600625,12.9208125 L23.212875,22.2608437 C23.1673125,22.516875 23.248875,22.7784375 23.4313125,22.9632187 C23.6145,23.148 23.8753125,23.2328437 24.1313438,23.1887812 L31.935375,21.88875 L23.199375,35.2831875 L24.7842188,27.3568125 C24.83625,27.0991875 24.7577813,26.8328437 24.5754375,26.6431875 C24.422625,26.4863437 24.2154375,26.4 24.0002813,26.4 C23.9563125,26.4 23.9130938,26.4031875 23.869125,26.4111563 L15.977625,27.726375 Z" id="Shape"></path>
                            <path d="M46.7775937,16.4184375 C46.637625,15.9992812 46.1864062,15.7720312 45.7648125,15.9128437 C45.3464062,16.0520625 45.11925,16.504875 45.258375,16.9240312 C46.0159687,19.1976562 46.3999687,21.5784375 46.3999687,24 C46.3999687,36.3511875 36.3519375,46.3999687 24,46.3999687 C17.0680312,46.3999687 10.5799688,43.1359687 6.354375,37.5999375 L11.1999375,37.5999375 C11.6423438,37.5999375 11.9999063,37.2415312 11.9999063,36.7999687 C11.9999063,36.3584062 11.6423438,36 11.1999375,36 L4.8,36 C4.776,36 4.7544375,36.012 4.7311875,36.0144375 C4.6768125,36.0184687 4.62478125,36.0304687 4.57115625,36.0464062 C4.519125,36.0624375 4.471125,36.0808125 4.42396875,36.1055625 C4.40315625,36.1175625 4.37915625,36.1191562 4.35759375,36.1335937 C4.3351875,36.1480312 4.3231875,36.1711875 4.30321875,36.1879687 C4.26,36.222375 4.22240625,36.2599687 4.188,36.3023437 C4.15603125,36.342375 4.128,36.3823125 4.10484375,36.426375 C4.08084375,36.4711875 4.06246875,36.516 4.04803125,36.5655937 C4.03125,36.617625 4.02,36.6688125 4.01521875,36.7240312 C4.01278125,36.7504687 4.00003125,36.772875 4.00003125,36.8000625 L4.00003125,43.2 C4.00003125,43.6415625 4.35759375,43.9999687 4.8,43.9999687 C5.24240625,43.9999687 5.59996875,43.6415625 5.59996875,43.2 L5.59996875,39.2128125 C10.1295937,44.7504375 16.8407812,48 24,48 C37.2335625,48 48,37.2335625 48,24 C48,21.4064062 47.5879687,18.8551875 46.7775937,16.4184375 Z" id="Shape"></path>
                        </g>
                    </g>
                </g>
            </g>
        </g>
    </g>
</svg>