<?xml version="1.0" encoding="UTF-8"?>
<svg width="48px" height="48px" viewBox="0 0 48 48" version="1.1" xmlns="http://www.w3.org/2000/svg" xmlns:xlink="http://www.w3.org/1999/xlink">
    <!-- Generator: Sketch 51.1 (57501) - http://www.bohemiancoding.com/sketch -->
    <title>day</title>
    <desc>Created with Sketch.</desc>
    <defs></defs>
    <g id="V1" stroke="none" stroke-width="1" fill="none" fill-rule="evenodd">
        <g id="Design-v1" transform="translate(-139.000000, -3432.000000)" fill="#000000" fill-rule="nonzero">
            <g id="Page" transform="translate(-239.000000, -57.000000)">
                <g id="Section-Content" transform="translate(237.000000, 1554.000000)">
                    <g id="IOT-Use-Cases" transform="translate(139.000000, 1893.000000)">
                        <g id="day" transform="translate(2.000000, 42.000000)">
                            <path d="M40.6932187,16.1877895 L37.7371875,17.4102456 C37.3291875,17.5795088 37.1355937,18.0465965 37.3043437,18.4538012 C37.4315625,18.7611696 37.7299687,18.9472749 38.0427187,18.9472749 C38.1450937,18.9472749 38.2491562,18.927345 38.3490937,18.8858012 L41.305125,17.663345 C41.713125,17.4940819 41.9067187,17.0269942 41.7387187,16.6197895 C41.5692187,16.2117427 41.100375,16.020117 40.6932187,16.1877895 Z" id="Shape"></path>
                            <path d="M24.8244375,6.38774269 C25.266,6.38774269 25.6244063,6.03003509 25.6244063,5.58933333 C25.6244063,5.14778947 25.266,4.79092398 24.8244375,4.79092398 L24.815625,4.79092398 C24.3740625,4.79092398 24.0204375,5.14778947 24.0204375,5.58933333 C24.0204375,6.03003509 24.3820313,6.38774269 24.8244375,6.38774269 Z" id="Shape"></path>
                            <path d="M22.4004375,16.7674386 C22.4004375,18.0880468 23.4764063,19.1627602 24.8004375,19.1627602 C26.123625,19.1627602 27.2004375,18.0880468 27.2004375,16.7674386 C27.2004375,15.4459883 26.123625,14.372117 24.8004375,14.372117 C23.4764063,14.372117 22.4004375,15.4459883 22.4004375,16.7674386 Z M25.6004063,16.7674386 C25.6004063,17.2073918 25.24125,17.565848 24.8004375,17.565848 C24.358875,17.565848 24.0004687,17.2073918 24.0004687,16.7674386 C24.0004687,16.3267368 24.358875,15.9690292 24.8004375,15.9690292 C25.24125,15.9690292 25.6004063,16.3267368 25.6004063,16.7674386 Z" id="Shape"></path>
                            <path d="M35.2004063,23.9534035 C35.2004063,30.1165848 30.1755938,35.1316023 24.000375,35.1316023 C21.996375,35.1316023 20.0315625,34.5974269 18.3164063,33.5866199 C17.9364375,33.3638363 17.4451875,33.4892164 17.220375,33.8684444 C16.9964063,34.2485146 17.1219375,34.7379649 17.50275,34.9623392 C19.464375,36.1177076 21.7099688,36.7285146 24.000375,36.7285146 C31.0579688,36.7285146 36.8003438,30.9973333 36.8003438,23.9534971 C36.8003438,20.8100117 35.6579063,17.8470175 33.589125,15.5115789 L47.766,1.36318129 C48.078,1.05094737 48.078,0.545590643 47.766,0.23419883 C47.4531563,-0.0779415205 46.9468125,-0.0779415205 46.6348125,0.23419883 L15.5371875,31.2703626 C12.396375,27.664655 11.915625,22.4596023 14.3299687,18.3084912 C15.0275625,18.8546433 15.8971875,19.1628538 16.800375,19.1628538 C19.0051875,19.1628538 20.8004063,17.3719766 20.8004063,15.1706199 C20.8004063,14.5422222 20.6380313,13.9386199 20.3611875,13.388538 C21.5251875,12.9892865 22.7539687,12.7752982 24.000375,12.7752982 C25.991625,12.7752982 27.9459375,13.3031111 29.6532187,14.3019415 C30.035625,14.5247251 30.5251875,14.3970058 30.7476562,14.0169357 C30.971625,13.636117 30.8436562,13.1466667 30.4628437,12.923883 C28.5100312,11.7820819 26.2748437,11.1784795 24.0004687,11.1784795 C22.2396562,11.1784795 20.5109062,11.551345 18.9156562,12.2403743 C18.8820937,12.2507602 18.8524687,12.2651696 18.8204062,12.2794854 C17.748375,12.7529357 16.7380312,13.3661754 15.8267812,14.1222924 C15.48675,14.404117 15.4395937,14.9071345 15.7219687,15.2465029 C15.8804062,15.436538 16.1084062,15.5347836 16.33875,15.5347836 C16.5179062,15.5347836 16.6995937,15.474152 16.848375,15.3503626 C17.4803437,14.8265731 18.1699687,14.3866199 18.894,14.0161871 C19.0884375,14.3675322 19.200375,14.7611696 19.200375,15.1707135 C19.200375,16.4913216 18.1235625,17.5660351 16.800375,17.5660351 C16.0452187,17.5660351 15.33,17.2067368 14.8763437,16.603883 C14.7571875,16.413848 14.5611562,16.2796725 14.3323125,16.2414035 C14.029875,16.1903158 13.7219062,16.3196257 13.5443437,16.5711345 C10.1059687,21.4727485 10.50675,27.9984094 14.4075,32.397848 L0.23484375,46.5437193 C-0.07790625,46.8551111 -0.07790625,47.3605614 0.23484375,47.6727018 C0.39084375,47.8283977 0.5956875,47.9066199 0.8004375,47.9066199 C1.0051875,47.9066199 1.20928125,47.8283977 1.36603125,47.6727018 L32.4580313,16.6404678 C34.2259688,18.6725614 35.2004063,21.2363041 35.2004063,23.9534035 Z" id="Shape"></path>
                            <path d="M17.6004375,22.3564912 C18.2780625,22.3564912 18.8852813,22.7844678 19.10925,23.4215673 C19.2564375,23.8383158 19.7116875,24.0571696 20.1300938,23.9101754 C20.5460625,23.7640234 20.7660937,23.3081637 20.6189063,22.8921637 C20.170125,21.6162807 18.9565313,20.7595789 17.6005313,20.7595789 C15.8356875,20.7595789 14.4005625,22.192 14.4005625,23.9533099 C14.4005625,25.3059181 15.2589375,26.5171462 16.5374063,26.9666433 C16.6245938,26.9969591 16.7142188,27.012117 16.803,27.012117 C17.132625,27.012117 17.4414375,26.8060819 17.5574062,26.4787836 C17.7045938,26.0627836 17.4854063,25.6060819 17.0685938,25.4599298 C16.4294062,25.2355556 16.0005938,24.6295205 16.0005938,23.9533099 C16.0004063,23.0727485 16.7179688,22.3564912 17.6004375,22.3564912 Z" id="Shape"></path>
                            <path d="M4.00040625,28.7440468 C4.44196875,28.7440468 4.800375,28.3863392 4.800375,27.9456374 L4.800375,27.1472281 L5.60034375,27.1472281 C6.04190625,27.1472281 6.4003125,26.7895205 6.4003125,26.3488187 C6.4003125,25.9072749 6.04190625,25.5504094 5.60034375,25.5504094 L4.800375,25.5504094 L4.800375,24.752 C4.800375,24.3104561 4.44196875,23.9535906 4.00040625,23.9535906 C3.558,23.9535906 3.2004375,24.3104561 3.2004375,24.752 L3.2004375,25.5504094 L2.40046875,25.5504094 C1.9580625,25.5504094 1.6005,25.9072749 1.6005,26.3488187 C1.6005,26.7895205 1.9580625,27.1472281 2.40046875,27.1472281 L3.2004375,27.1472281 L3.2004375,27.9456374 C3.2004375,28.3863392 3.558,28.7440468 4.00040625,28.7440468 Z" id="Shape"></path>
                            <path d="M0.8004375,9.58147368 L3.2004375,9.58147368 L3.2004375,11.9767953 C3.2004375,12.4174971 3.558,12.7752047 4.00040625,12.7752047 C4.44196875,12.7752047 4.800375,12.4174971 4.800375,11.9767953 L4.800375,9.58147368 L7.200375,9.58147368 C7.6419375,9.58147368 8.00034375,9.22376608 8.00034375,8.78306433 C8.00034375,8.34152047 7.6419375,7.98465497 7.200375,7.98465497 L4.800375,7.98465497 L4.800375,5.58933333 C4.800375,5.14778947 4.44196875,4.79092398 4.00040625,4.79092398 C3.558,4.79092398 3.2004375,5.14778947 3.2004375,5.58933333 L3.2004375,7.98465497 L0.8004375,7.98465497 C0.35803125,7.98465497 0.00046875,8.34152047 0.00046875,8.78306433 C0.000375,9.22376608 0.35803125,9.58147368 0.8004375,9.58147368 Z" id="Shape"></path>
                            <path d="M16.800375,3.19391813 L17.6003438,3.19391813 L17.6003438,3.99232749 C17.6003438,4.43302924 17.9579062,4.79073684 18.4003125,4.79073684 C18.841875,4.79073684 19.2002812,4.43302924 19.2002812,3.99232749 L19.2002812,3.19391813 L20.00025,3.19391813 C20.4418125,3.19391813 20.8002187,2.83621053 20.8002187,2.39550877 C20.8002187,1.95396491 20.4418125,1.59709942 20.00025,1.59709942 L19.2002812,1.59709942 L19.2002812,0.798596491 C19.2002812,0.357052632 18.841875,0.000187134503 18.4003125,0.000187134503 C17.9579062,0.000187134503 17.6003438,0.357052632 17.6003438,0.798596491 L17.6003438,1.59700585 L16.800375,1.59700585 C16.3579688,1.59700585 16.0004063,1.95387135 16.0004063,2.3954152 C16.0004062,2.83630409 16.3579688,3.19391813 16.800375,3.19391813 Z" id="Shape"></path>
                            <path d="M7.224375,14.372117 L7.2155625,14.372117 C6.774,14.372117 6.420375,14.7289825 6.420375,15.1705263 C6.420375,15.6112281 6.78196875,15.9689357 7.224375,15.9689357 C7.6659375,15.9689357 8.02434375,15.6112281 8.02434375,15.1705263 C8.0244375,14.729076 7.66603125,14.372117 7.224375,14.372117 Z" id="Shape"></path>
                            <path d="M33.0035625,43.5622924 C32.833125,43.1550877 32.3635313,42.9650526 31.956375,43.1335673 C31.548375,43.3036725 31.356375,43.7707602 31.5268125,44.1779649 L32.862,47.3661754 C32.9899688,47.6719532 33.287625,47.8572164 33.600375,47.8572164 C33.7035938,47.8572164 33.8075625,47.8364444 33.9083438,47.7949006 C34.3163438,47.6247953 34.5083438,47.1569591 34.33875,46.7497544 L33.0035625,43.5622924 Z" id="Shape"></path>
                            <path d="M41.3052187,30.2435556 L38.3484375,29.0203509 C37.942875,28.8518363 37.4715937,29.0451462 37.3035937,29.4523509 C37.13475,29.8603977 37.3284375,30.3274854 37.7364375,30.4959064 L40.6932187,31.7191111 C40.79325,31.760655 40.8972187,31.7797427 40.9995937,31.7797427 C41.3124375,31.7797427 41.61075,31.5944795 41.7388125,31.2871111 C41.9068125,30.8790643 41.7132187,30.4128187 41.3052187,30.2435556 Z" id="Shape"></path>
                            <path d="M35.5971562,34.2325146 C35.2843125,33.9211228 34.7779687,33.9211228 34.4659688,34.2325146 C34.1532188,34.5447485 34.1532188,35.0501053 34.4659688,35.3614971 L38.9908125,39.878269 C39.1468125,40.0339649 39.3516562,40.1121871 39.5564063,40.1121871 C39.76125,40.1121871 39.966,40.0339649 40.122,39.878269 C40.4348438,39.5660351 40.4348438,39.0614269 40.122,38.7492865 L35.5971562,34.2325146 Z" id="Shape"></path>
                            <path d="M46.896375,13.6335906 L43.6515937,14.9654269 C43.242,15.1330994 43.0475625,15.5994386 43.2155625,16.0073918 C43.3427812,16.3156023 43.6411875,16.5024561 43.9555312,16.5024561 C44.0571562,16.5024561 44.1602812,16.4832749 44.2595625,16.4418246 L47.5043437,15.1099883 C47.9131875,14.9431579 48.1075312,14.4760702 47.9395312,14.0680234 C47.771625,13.6607251 47.303625,13.4666667 46.896375,13.6335906 Z" id="Shape"></path>
                            <path d="M38.400375,23.9534035 C38.400375,24.3941053 38.7579375,24.7518129 39.2003437,24.7518129 L45.600375,24.7518129 C46.0419375,24.7518129 46.4003437,24.3941053 46.4003437,23.9534035 C46.4003437,23.5118596 46.0419375,23.1549942 45.600375,23.1549942 L39.2003437,23.1549942 C38.7580312,23.1549942 38.400375,23.5118596 38.400375,23.9534035 Z" id="Shape"></path>
                            <path d="M47.5044375,32.7961637 L44.2596562,31.4651696 C43.8525,31.2983392 43.3828125,31.4923041 43.2156562,31.9003509 C43.0476562,32.3083041 43.2428437,32.7746433 43.6516875,32.9423158 L46.8964687,34.2725614 C46.9956562,34.3141053 47.098875,34.333193 47.2005,34.333193 C47.5140937,34.333193 47.8133437,34.1463392 47.9397187,33.8381287 C48.107625,33.4300819 47.9124375,32.9638363 47.5044375,32.7961637 Z" id="Shape"></path>
                            <path d="M31.7804062,40.6137076 L30.5555625,37.661848 C30.3867187,37.2546433 29.916375,37.0614269 29.5099687,37.229848 C29.1028125,37.3991111 28.908375,37.8654503 29.077125,38.2734035 L30.3027187,41.2252632 C30.4299375,41.5326316 30.7283437,41.7187368 31.0410937,41.7187368 C31.1434687,41.7187368 31.2475312,41.698807 31.3474687,41.6572632 C31.7555625,41.4887485 31.9491562,41.0216608 31.7804062,40.6137076 Z" id="Shape"></path>
                            <path d="M32.1220312,27.4354152 C32.2044375,27.4618012 32.2868437,27.4745263 32.36925,27.4745263 C32.7060937,27.4745263 33.0196875,27.2597895 33.1300312,26.9227602 C33.6508125,25.3219181 33.7404375,23.6036491 33.3908437,21.9549006 C33.298875,21.5245848 32.8780312,21.2475322 32.44125,21.3400702 C32.00925,21.4311111 31.7340937,21.8550643 31.8252187,22.2862222 C32.118,23.6610994 32.0420625,25.0943626 31.607625,26.4292865 C31.4715937,26.8485614 31.7020312,27.2989006 32.1220312,27.4354152 Z" id="Shape"></path>
                            <path d="M16.038,43.1311345 C15.6324375,42.9643041 15.1611562,43.1575205 14.994,43.5654737 L13.6604062,46.8039298 C13.4924062,47.2127251 13.6875937,47.6790643 14.0964375,47.8458947 C14.195625,47.8874386 14.2988437,47.9066199 14.4004687,47.9066199 C14.7140625,47.9066199 15.0133125,47.7197661 15.1396875,47.4115556 L16.4732812,44.1730994 C16.6411875,43.7651462 16.446,43.298807 16.038,43.1311345 Z" id="Shape"></path>
                            <path d="M24.000375,38.3253333 C23.5579688,38.3253333 23.2004063,38.6821988 23.2004063,39.1237427 L23.2004063,45.5112982 C23.2004063,45.952 23.5579688,46.3097076 24.000375,46.3097076 C24.4419375,46.3097076 24.8003438,45.952 24.8003438,45.5112982 L24.8003438,39.1237427 C24.8004375,38.6822924 24.4420312,38.3253333 24.000375,38.3253333 Z" id="Shape"></path>
                            <path d="M18.4907813,37.2306901 C18.084375,37.0630175 17.6139375,37.2546433 17.4451875,37.6626901 L16.2195938,40.6137076 C16.05,41.0217544 16.2435938,41.4888421 16.6524375,41.6572632 C16.7524688,41.698807 16.8564375,41.7187368 16.9588125,41.7187368 C17.2724063,41.7187368 17.5708125,41.5327251 17.6980312,41.2252632 L18.923625,38.2734035 C19.0932188,37.8661988 18.899625,37.3991111 18.4907813,37.2306901 Z" id="Shape"></path>
                        </g>
                    </g>
                </g>
            </g>
        </g>
    </g>
</svg>